<svg width="24" height="24" viewBox="0 0 24 24" fill="none" xmlns="http://www.w3.org/2000/svg">
<path d="M9.00003 5C9.00003 4.73478 9.10539 4.48043 9.29292 4.29289C9.48046 4.10536 9.73481 4 10 4H14C14.2652 4 14.5196 4.10536 14.7071 4.29289C14.8947 4.48043 15 4.73478 15 5V11C15 11.2652 15.1054 11.5196 15.2929 11.7071C15.4805 11.8946 15.7348 12 16 12H19.293C19.4329 12 19.5696 12.0414 19.6859 12.1191C19.8022 12.1968 19.8928 12.3072 19.9464 12.4364C19.9999 12.5656 20.0139 12.7078 19.9866 12.845C19.9593 12.9821 19.8919 13.1081 19.793 13.207L12.707 20.293C12.5195 20.4805 12.2652 20.5858 12 20.5858C11.7349 20.5858 11.4806 20.4805 11.293 20.293L4.20703 13.207C4.10812 13.1081 4.04076 12.9821 4.01347 12.845C3.98618 12.7078 4.00018 12.5656 4.0537 12.4364C4.10723 12.3072 4.19787 12.1968 4.31416 12.1191C4.43046 12.0414 4.56718 12 4.70703 12H8.00003C8.26525 12 8.5196 11.8946 8.70714 11.7071C8.89467 11.5196 9.00003 11.2652 9.00003 11V5Z" stroke="black" stroke-width="2" stroke-linecap="round" stroke-linejoin="round"/>
</svg>
