<svg width="24" height="24" viewBox="0 0 24 24" fill="none" xmlns="http://www.w3.org/2000/svg">
<g clip-path="url(#clip0_1036_13332)">
<path d="M2.5 21.5001L3.9 20.1001M20.1 3.9L21.5 2.5M9.59998 14.4001L14.4 9.6001M17.596 12.768C17.9712 13.1432 18.48 13.3539 19.0105 13.3539C19.5411 13.3539 20.0499 13.1432 20.425 12.768C20.8002 12.3929 21.0109 11.884 21.0109 11.3535C21.0109 10.823 20.8002 10.3142 20.425 9.93901L18.657 8.17201C19.0322 8.54702 19.5409 8.75765 20.0714 8.75756C20.334 8.75751 20.5941 8.70573 20.8367 8.60518C21.0794 8.50462 21.2998 8.35726 21.4855 8.17151C21.6712 7.98575 21.8185 7.76524 21.919 7.52257C22.0194 7.27989 22.0711 7.0198 22.0711 6.75715C22.071 6.4945 22.0192 6.23443 21.9187 5.99179C21.8181 5.74915 21.6708 5.5287 21.485 5.34301L18.657 2.51501C18.282 2.13986 17.7733 1.92905 17.2429 1.92896C16.7124 1.92886 16.2037 2.13949 15.8285 2.51451C15.4534 2.88952 15.2426 3.39821 15.2425 3.92865C15.2424 4.4591 15.453 4.96786 15.828 5.34301L14.061 3.57501C13.8753 3.38925 13.6547 3.2419 13.412 3.14137C13.1693 3.04084 12.9092 2.9891 12.6465 2.9891C12.3838 2.9891 12.1237 3.04084 11.881 3.14137C11.6383 3.2419 11.4178 3.38925 11.232 3.57501C11.0463 3.76076 10.8989 3.98128 10.7984 4.22398C10.6979 4.46669 10.6461 4.72681 10.6461 4.98951C10.6461 5.2522 10.6979 5.51233 10.7984 5.75503C10.8989 5.99773 11.0463 6.21825 11.232 6.40401L17.596 12.768ZM5.34301 21.4849C5.71802 21.8601 6.22671 22.0709 6.75715 22.071C7.0198 22.071 7.27989 22.0193 7.52257 21.9188C7.76524 21.8184 7.98575 21.6711 8.17151 21.4854C8.35726 21.2997 8.50462 21.0793 8.60518 20.8366C8.70573 20.594 8.75751 20.3339 8.75756 20.0713C8.7576 19.8086 8.70592 19.5485 8.60545 19.3058C8.50498 19.0632 8.3577 18.8427 8.17201 18.6569L9.93901 20.4249C10.3142 20.8 10.823 21.0108 11.3535 21.0108C11.884 21.0108 12.3929 20.8 12.768 20.4249C13.1432 20.0498 13.3539 19.5409 13.3539 19.0104C13.3539 18.4799 13.1432 17.9711 12.768 17.5959L6.40401 11.2319C6.21825 11.0461 5.99773 10.8988 5.75503 10.7983C5.51233 10.6977 5.2522 10.646 4.98951 10.646C4.72681 10.646 4.46669 10.6977 4.22398 10.7983C3.98128 10.8988 3.76076 11.0461 3.57501 11.2319C3.38925 11.4177 3.2419 11.6382 3.14137 11.8809C3.04084 12.1236 2.9891 12.3837 2.9891 12.6464C2.9891 12.9091 3.04084 13.1692 3.14137 13.4119C3.2419 13.6546 3.38925 13.8751 3.57501 14.0609L5.34301 15.8279C4.96786 15.4529 4.4591 15.2423 3.92865 15.2423C3.39821 15.2424 2.88952 15.4533 2.51451 15.8284C2.13949 16.2035 1.92886 16.7123 1.92896 17.2428C1.92905 17.7732 2.13986 18.2819 2.51501 18.6569L5.34301 21.4849Z" stroke="black" stroke-width="2" stroke-linecap="round" stroke-linejoin="round"/>
</g>
<defs>
<clipPath id="clip0_1036_13332">
<rect width="24" height="24" fill="white"/>
</clipPath>
</defs>
</svg>
